<svg width="200" height="200" viewBox="0 0 200 200" fill="none" xmlns="http://www.w3.org/2000/svg">
<path d="M106.58 2.15149C103.258 2.50568 107 1.4753 65.3223 13.5822C45.645 19.3137 25.1612 25.2383 19.8386 26.7839C14.5161 28.3294 9.129 30.0682 7.83868 30.6478C4.64514 32.129 1.64515 35.0913 0.677417 37.6672L0 39.5348V87.9302C0 129.274 0.0645159 136.744 0.483869 138.902C1.12903 142.315 3.51612 147.08 6.35481 150.59C8.58061 153.295 8.67739 153.391 17.4515 158.801C54.8062 181.984 69.4191 190.903 73.0642 192.803C79.5158 196.152 84.7739 197.601 90.3867 197.601C94.1287 197.601 96.9996 197.021 99.3867 195.797C100.322 195.347 107.032 192.964 114.322 190.517C157.193 176.124 183.515 167.076 186.935 165.562C193.064 162.858 197.612 157.319 199.354 150.461C199.999 147.982 199.999 146.79 199.999 99.7473C199.999 47.0372 200.096 49.7741 198.128 46.1356C196.838 43.7207 192.548 39.6314 189.515 37.8604C188.096 37.0232 181.644 33.6423 175.161 30.3258C161.257 23.1776 155.064 19.9255 139.612 11.7469C133.129 8.30154 126.774 5.17822 125.064 4.56643C119.451 2.57008 112.096 1.60411 106.58 2.15149Z" fill="white"/>
<g clip-path="url(#clip0_120_203)">
<path d="M106.239 7.4679C103.089 7.80373 106.637 6.82678 67.1203 18.3059C48.4633 23.7402 29.0416 29.3576 23.995 30.8231C18.9484 32.2885 13.8407 33.9371 12.6173 34.4866C9.58934 35.891 6.74491 38.6997 5.82735 41.1421L5.18506 42.9128V88.7988C5.18506 127.999 5.24623 135.082 5.64384 137.127C6.25554 140.363 8.51886 144.882 11.2104 148.209C13.3207 150.774 13.4125 150.865 21.7317 155.994C57.1495 177.976 71.0046 186.432 74.4608 188.234C80.5778 191.409 85.5632 192.783 90.8851 192.783C94.433 192.783 97.1551 192.233 99.4184 191.073C100.305 190.646 106.667 188.386 113.579 186.066C154.227 172.419 179.185 163.841 182.427 162.406C188.238 159.841 192.551 154.59 194.202 148.087C194.814 145.737 194.814 144.607 194.814 100.003C194.814 50.0262 194.906 52.6212 193.04 49.1714C191.817 46.8816 187.749 43.0044 184.874 41.3252C183.528 40.5315 177.411 37.3259 171.263 34.1813C158.081 27.4037 152.209 24.3203 137.558 16.5657C131.411 13.2991 125.385 10.3377 123.764 9.75763C118.442 7.86479 111.469 6.9489 106.239 7.4679ZM116.974 14.7645C120.033 15.4056 117.341 14.1539 156.124 33.0822C168.572 39.1882 179.521 44.6224 180.5 45.2025C183.497 47.0038 184.874 49.1103 184.14 50.6978C183.711 51.6443 181.356 53.1402 179.368 53.7508C178.543 53.995 174.689 55.1857 170.835 56.3763L163.831 58.5745L163.984 89.043C164.045 105.804 164.015 119.481 163.892 119.451C163.77 119.389 159.61 115.665 154.686 111.177C149.762 106.689 145.602 102.995 145.48 102.995C145.327 102.995 142.33 106.872 138.812 111.635C135.295 116.398 129.3 124.488 125.477 129.647C121.684 134.807 118.504 138.989 118.442 138.928C118.381 138.898 118.473 124.091 118.626 106.048C118.779 88.005 118.84 73.1982 118.748 73.1066C118.687 73.015 114.191 74.4499 108.777 76.2511C103.364 78.0524 98.042 79.6704 96.941 79.8841C93.8213 80.4642 86.2667 80.3726 83.1776 79.701C77.3358 78.4798 75.7148 77.686 51.7053 64.0393C34.6999 54.3919 24.1174 47.9196 21.7317 45.7826C21.0588 45.172 20.2942 44.0729 20.0189 43.3402C19.5296 42.119 19.5296 41.9664 20.0495 40.8978C20.6306 39.6766 22.4352 38.3333 24.5761 37.5396C25.6466 37.1732 96.8186 16.7489 101.468 15.4972C106.514 14.1539 112.631 13.8486 116.974 14.7645ZM18.245 52.6212C19.0708 52.9265 32.6507 60.9558 48.4633 70.4505C68.7107 82.6013 77.6416 88.1271 78.7121 89.1651C80.4861 90.9053 81.9236 93.1035 82.8717 95.5458C83.5446 97.286 83.6058 97.9577 83.8199 107.605C84.1257 121.862 84.2481 175.93 83.9422 177.06C83.8199 177.548 83.3611 178.617 82.9635 179.38C81.3119 182.494 78.1922 182.922 73.635 180.632C69.506 178.586 51.7053 167.87 25.9831 151.904C16.3487 145.92 14.2995 143.966 12.4949 139.051L11.7609 137.066V96.6144V56.1626L12.4338 54.7277C13.1678 53.1402 14.6053 52.0411 15.9511 52.0411C16.4099 52.0411 17.4498 52.2854 18.245 52.6212Z" fill="black"/>
</g>
<defs>
<clipPath id="clip0_120_203">
<rect width="189.63" height="189.63" fill="white" transform="translate(5.18506 5.10205)"/>
</clipPath>
</defs>
</svg>
